<?xml version="1.0" encoding="utf-8"?>
<!-- Generator: Adobe Illustrator 16.0.4, SVG Export Plug-In . SVG Version: 6.00 Build 0)  -->
<!DOCTYPE svg PUBLIC "-//W3C//DTD SVG 1.1//EN" "http://www.w3.org/Graphics/SVG/1.1/DTD/svg11.dtd">

<svg width="452px" height="258px" viewBox="0 0 452 258" version="1.1" xmlns="http://www.w3.org/2000/svg" xmlns:xlink="http://www.w3.org/1999/xlink">
<g id="Page-1" stroke="none" stroke-width="1" fill="none" fill-rule="evenodd">
	<g id="translation" fill="#000000">
		<path d="M70.244,160.194 C71.184,160.584 72.157,160.768 73.115,160.768 C76.056,160.768 78.848,159.026 80.046,156.14 L89.984,132.182 L127.427,132.182 L137.664,156.207 C139.287,160.018 143.692,161.791 147.504,160.167 C151.315,158.543 153.087,154.138 151.463,150.327 L139.312,121.81 C139.298,121.777 139.285,121.745 139.27,121.712 L115.261,65.365 C114.082,62.598 111.366,60.805 108.362,60.805 C108.35,60.805 108.338,60.805 108.326,60.805 C105.307,60.82 102.592,62.643 101.434,65.431 L78.079,121.735 C78.07,121.757 78.061,121.779 78.052,121.8 L66.19,150.392 C64.604,154.218 66.419,158.606 70.244,160.194 Z M108.454,87.655 L121.035,117.181 L96.206,117.181 L108.454,87.655 Z" id="Shape" fill-rule="nonzero"></path>
		<path d="M108.801,0.157 C104.658,0.178 101.319,3.554 101.34,7.696 C101.361,11.825 104.715,15.157 108.839,15.157 C108.853,15.157 108.866,15.157 108.879,15.157 C134.691,15.031 158.751,24.903 176.551,42.978 C193.913,60.61 203.194,84.001 202.682,108.842 C202.04,139.953 187.721,167.799 163.397,185.239 C163.132,185.429 162.883,185.633 162.65,185.851 L161.587,186.58 C161.321,186.763 161.057,186.946 160.713,187.176 L90.089,235.457 L90.089,206.779 C90.089,203.384 87.809,200.413 84.53,199.534 C43.592,188.566 15,151.335 15,108.997 C15,76.033 31.875,46.089 60.14,28.896 C63.679,26.744 64.803,22.13 62.651,18.591 C60.498,15.051 55.884,13.927 52.345,16.081 C19.568,36.017 0,70.752 0,108.997 C0,156.172 30.594,197.88 75.088,212.375 L75.088,249.669 C75.088,252.451 76.628,255.004 79.088,256.302 C80.187,256.882 81.389,257.169 82.587,257.169 C84.071,257.169 85.55,256.729 86.82,255.86 L169.101,199.61 C169.437,199.386 169.769,199.157 170.102,198.928 L172.142,197.532 C172.524,197.271 172.875,196.978 173.196,196.661 C200.755,176.399 216.947,144.582 217.677,109.152 C218.274,80.232 207.463,52.993 187.238,32.454 C166.576,11.47 138.732,0.038 108.801,0.157 Z" id="Path"></path>
		<path d="M342.485,0.157 C282.47,0.157 233.645,48.982 233.645,108.997 C233.645,143.489 250.249,176.16 278.128,196.661 C278.448,196.979 278.801,197.272 279.184,197.533 L281.185,198.903 C281.529,199.14 281.871,199.376 282.148,199.56 L364.504,255.862 C365.775,256.731 367.253,257.171 368.737,257.171 C369.935,257.171 371.137,256.884 372.236,256.304 C374.696,255.006 376.236,252.453 376.236,249.671 L376.236,206.781 C376.236,202.639 372.879,199.281 368.736,199.281 C364.593,199.281 361.236,202.639 361.236,206.781 L361.236,235.459 L290.542,187.13 C290.26,186.942 289.982,186.75 289.704,186.558 L288.674,185.852 C288.441,185.635 288.192,185.431 287.928,185.241 C263.33,167.604 248.645,139.102 248.645,108.998 C248.645,57.254 290.742,15.158 342.485,15.158 C394.228,15.158 436.325,57.254 436.325,108.998 C436.325,135.176 425.788,159.456 406.655,177.364 C403.631,180.195 403.473,184.941 406.304,187.965 C409.133,190.988 413.88,191.147 416.905,188.316 C438.779,167.843 451.325,138.933 451.325,108.999 C451.325,48.982 402.5,0.157 342.485,0.157 Z" id="Path"></path>
		<path d="M291.663,142.163 C287.52,142.163 284.163,145.521 284.163,149.663 C284.163,153.805 287.52,157.163 291.663,157.163 L355.38,157.163 C359.523,157.163 362.88,153.805 362.88,149.663 C362.88,145.521 359.523,142.163 355.38,142.163 L331.022,142.163 L331.022,135.365 L355.38,135.365 C359.523,135.365 362.88,132.007 362.88,127.865 C362.88,123.723 359.523,120.365 355.38,120.365 L331.022,120.365 L331.022,105.183 L343.539,105.183 L345.956,110.017 C347.269,112.645 349.919,114.164 352.67,114.164 C353.797,114.164 354.941,113.909 356.019,113.371 C359.723,111.519 361.225,107.014 359.373,103.309 L349.373,83.309 C347.522,79.604 343.018,78.102 339.31,79.955 C335.606,81.807 334.104,86.312 335.956,90.017 L336.039,90.183 L306.705,90.183 L318.018,71.648 L357.058,71.648 C361.201,71.648 364.558,68.29 364.558,64.148 C364.558,60.006 361.201,56.648 357.058,56.648 L294.18,56.648 C290.037,56.648 286.68,60.006 286.68,64.148 C286.68,68.29 290.037,71.648 294.18,71.648 L300.446,71.648 L286.94,93.776 C285.527,96.091 285.473,98.988 286.801,101.354 C288.128,103.719 290.629,105.184 293.341,105.184 L316.023,105.184 L316.023,120.366 L291.665,120.366 C287.522,120.366 284.165,123.724 284.165,127.866 C284.165,132.008 287.522,135.366 291.665,135.366 L316.023,135.366 L316.023,142.164 L291.663,142.164 L291.663,142.163 Z" id="Path"></path>
		<path d="M374.663,141.234 C378.806,141.234 382.163,137.876 382.163,133.734 L382.163,73.37 C382.163,69.228 378.806,65.87 374.663,65.87 C370.52,65.87 367.163,69.228 367.163,73.37 L367.163,133.734 C367.163,137.876 370.521,141.234 374.663,141.234 Z" id="Path"></path>
		<path d="M367.663,178.163 L368.525,178.163 C388.727,178.163 405.163,161.727 405.163,141.525 L405.163,64.663 C405.163,60.521 401.806,57.163 397.663,57.163 C393.52,57.163 390.163,60.521 390.163,64.663 L390.163,141.525 C390.163,153.456 380.456,163.163 368.525,163.163 L367.663,163.163 C363.52,163.163 360.163,166.521 360.163,170.663 C360.163,174.805 363.521,178.163 367.663,178.163 Z" id="Path"></path>
	</g>
</g>
</svg>
